#!OML:ASF E:\emotionWalksFemale\Project 1\Capture day 1\Session 1\Female1.ASF
:FULLY-SPECIFIED
:DEGREES
656
root 9.21026 15.399 -4.87299 178.533 -4.19331 -182.891
lowerback 6.47035 -1.15601 -3.5511
upperback -2.50268 -1.95135 -0.847544
thorax -6.15972 -0.854851 1.337
lowerneck -8.45036 -2.54385 -6.02664
upperneck 10.8216 -3.82381 7.94466
head 4.8954 -1.72775 3.18936
rclavicle 8.85524e-015 -9.93923e-017
rhumerus -64.008 10.3455 -88.8642
rradius 31.6623
rwrist 15.9399
rhand 2.60272 -57.0139
rfingers 7.12502
rthumb 28.0809 635.068
lclavicle 8.85524e-015 -9.93923e-017
lhumerus -11.2447 -7.06984 76.8531
lradius 45.6741
lwrist -8.9058
lhand -13.3047 -28.1665
lfingers 7.12502
lthumb 12.7994 1.42116
rfemur -28.954 -0.0522154 20.9839
rtibia 49.8037
rfoot -16.0425 -21.3791
rtoes -6.44806
lfemur 8.25738 -20.8534 -35.6995
ltibia 18.9515
lfoot -20.465 17.5759
ltoes -14.851
657
root 9.23475 15.3852 -5.08427 178.4 -4.51069 -182.411
lowerback 6.56695 -1.30358 -3.37263
upperback -2.48603 -2.11949 -0.67907
thorax -6.18841 -0.937836 1.43417
lowerneck -7.96717 -2.36882 -6.13201
upperneck 10.529 -3.60275 8.12004
head 4.71236 -1.62772 3.28064
rclavicle -3.20074e-014 -2.34069e-014
rhumerus -64.7208 10.4842 -89.125
rradius 31.692
rwrist 15.5623
rhand 1.68202 -56.7485
rfingers 7.12502
rthumb 27.2004 635.192
lclavicle -3.20074e-014 -2.34069e-014
lhumerus -10.4561 -7.91319 76.4415
lradius 46.6502
lwrist -7.84838
lhand -13.3182 -28.3214
lfingers 7.12502
lthumb 12.7864 1.267
rfemur -28.5199 1.35104 21.2454
rtibia 45.477
rfoot -16.4598 -22.9203
rtoes -5.04653
lfemur 9.76044 -20.9191 -35.4558
ltibia 18.1301
lfoot -20.5682 17.6887
ltoes -14.9204
658
root 9.26394 15.3718 -5.29408 178.494 -4.84394 -182.02
lowerback 6.53085 -1.43218 -3.33943
upperback -2.57353 -2.27716 -0.513428
thorax -6.24698 -1.01031 1.60661
lowerneck -8.11839 -2.44553 -6.15858
upperneck 10.7542 -3.71323 8.1005
head 4.81519 -1.68114 3.27058
rclavicle 1.30018e-014 6.80837e-015
rhumerus -65.3693 10.573 -89.2107
rradius 31.7179
rwrist 15.4515
rhand 1.17395 -56.5398
rfingers 7.12502
rthumb 26.7143 635.326
lclavicle 1.30018e-014 6.80837e-015
lhumerus -9.61727 -8.62658 76.1045
lradius 47.354
lwrist -7.23394
lhand -13.7039 -28.561
lfingers 7.12502
lthumb 12.4146 1.05032
rfemur -28.2706 3.14191 21.2429
rtibia 41.0173
rfoot -16.7186 -24.7496
rtoes -4.22378
lfemur 10.9637 -20.9268 -35.1314
ltibia 17.2627
lfoot -20.5253 17.6108
ltoes -14.2387
659
root 9.29136 15.3623 -5.50738 178.788 -5.10112 -181.84
lowerback 6.20357 -1.51995 -3.48427
upperback -2.66877 -2.39196 -0.406244
thorax -6.14437 -1.06106 1.80296
lowerneck -7.82214 -2.37011 -6.22388
upperneck 10.3007 -3.61265 8.3386
head 4.62424 -1.62909 3.36401
rclavicle 1.59028e-014 8.05078e-015
rhumerus -65.8208 10.5778 -89.0765
rradius 31.7738
rwrist 15.8285
rhand 1.49411 -56.4959
rfingers 7.12502
rthumb 27.0207 635.417
lclavicle 1.59028e-014 8.05078e-015
lhumerus -8.50616 -8.95976 75.9102
lradius 47.6997
lwrist -7.07533
lhand -14.0945 -28.8157
lfingers 7.12502
lthumb 12.038 0.818068
rfemur -28.2545 5.27029 20.7925
rtibia 36.6617
rfoot -17.0672 -26.8652
rtoes -3.76425
lfemur 12.0592 -20.7958 -34.9431
ltibia 16.1663
lfoot -20.1863 17.6655
ltoes -14.1203
660
root 9.30857 15.3528 -5.71604 179.186 -5.40738 -182.095
lowerback 5.86362 -1.60292 -3.8484
upperback -2.74591 -2.53014 -0.449516
thorax -6.01168 -1.12078 1.96572
lowerneck -8.01845 -2.4178 -6.00947
upperneck 10.3843 -3.64481 7.96989
head 4.67545 -1.64805 3.20965
rclavicle 5.59082e-017 1.2921e-015
rhumerus -66.0821 10.5627 -88.9037
rradius 31.7532
rwrist 16.1474
rhand 1.59887 -56.4657
rfingers 7.12502
rthumb 27.1209 635.463
lclavicle 5.59082e-017 1.2921e-015
lhumerus -7.15484 -9.10819 75.8216
lradius 47.8431
lwrist -7.08903
lhand -13.9577 -28.7485
lfingers 7.12502
lthumb 12.1699 0.877548
rfemur -28.3674 7.65865 19.5525
rtibia 32.6088
rfoot -17.9223 -28.955
rtoes -1.9837
lfemur 13.1661 -20.4087 -35.1358
ltibia 14.8609
lfoot -19.7259 17.4407
ltoes -13.691
661
root 9.3174 15.3398 -5.91899 179.661 -5.87716 -182.718
lowerback 5.57173 -1.72943 -4.43072
upperback -2.82961 -2.75718 -0.624165
thorax -5.90422 -1.22044 2.12306
lowerneck -8.43803 -2.48624 -6.09654
upperneck 10.7191 -3.71707 7.90589
head 4.85465 -1.67824 3.19649
rclavicle 1.35049e-014 1.32192e-014
rhumerus -66.2948 10.4982 -88.7275
rradius 31.6565
rwrist 16.4995
rhand 1.19629 -56.35
rfingers 7.12502
rthumb 26.7357 635.519
lclavicle 1.35049e-014 1.32192e-014
lhumerus -6.14215 -9.45625 75.673
lradius 48.4368
lwrist -7.02946
lhand -13.7041 -28.4401
lfingers 7.12502
lthumb 12.4144 1.17129
rfemur -28.5696 10.4829 17.4792
rtibia 28.9712
rfoot -19.3359 -30.9454
rtoes 0.69837
lfemur 14.2941 -20.1911 -35.7233
ltibia 13.4177
lfoot -19.3455 16.9011
ltoes -10.8673
662
root 9.33262 15.3248 -6.12844 180.022 -6.34477 -182.977
lowerback 5.23563 -1.88888 -4.78297
upperback -2.83442 -2.98737 -0.670666
thorax -5.68837 -1.32987 2.27938
lowerneck -8.93803 -2.48374 -6.42938
upperneck 11.0478 -3.71031 8.24089
head 5.05182 -1.65646 3.35487
rclavicle -3.00103e-014 4.96962e-016
rhumerus -66.372 10.2573 -88.2377
rradius 31.6409
rwrist 17.1572
rhand 1.02903 -56.3063
rfingers 7.12502
rthumb 26.5756 635.538
lclavicle -3.00103e-014 4.96962e-016
lhumerus -5.45595 -10.062 75.3774
lradius 49.4318
lwrist -6.85121
lhand -13.8425 -28.1795
lfingers 7.12502
lthumb 12.281 1.43984
rfemur -28.869 14.2542 15.3943
rtibia 25.9287
rfoot -21.8603 -33.407
rtoes 5.06581
lfemur 15.6348 -20.1044 -35.9543
ltibia 11.7241
lfoot -18.4602 16.6346
ltoes -10.988
663
root 9.35117 15.3071 -6.34314 180.339 -6.68296 -182.924
lowerback 4.88076 -2.03491 -4.8104
upperback -2.88216 -3.16804 -0.655606
thorax -5.52059 -1.42374 2.31191
lowerneck -9.20243 -2.44776 -6.39742
upperneck 11.1696 -3.66194 8.26415
head 5.13046 -1.62282 3.35923
rclavicle -6.52262e-015 -4.96962e-015
rhumerus -66.4463 9.90851 -87.5787
rradius 31.7102
rwrist 18.0694
rhand 1.19545 -56.1447
rfingers 7.12502
rthumb 26.7349 635.724
lclavicle -6.52262e-015 -4.96962e-015
lhumerus -4.82297 -10.5158 75.1027
lradius 50.2169
lwrist -6.77549
lhand -13.8578 -28.1922
lfingers 7.12502
lthumb 12.2662 1.42804
rfemur -29.3815 18.6327 13.3197
rtibia 23.3237
rfoot -26.5457 -35.7707
rtoes 13.6858
lfemur 16.8167 -19.8418 -35.7879
ltibia 10.3731
lfoot -17.4523 16.4542
ltoes -14.0374
664
root 9.3658 15.2804 -6.55621 180.599 -7.00127 -183.01
lowerback 4.66188 -2.15811 -4.87272
upperback -2.99757 -3.34102 -0.728423
thorax -5.5061 -1.51105 2.27883
lowerneck -8.93396 -2.39117 -6.37643
upperneck 10.893 -3.61129 8.44959
head 4.99872 -1.59531 3.41867
rclavicle -7.60351e-015 1.3418e-014
rhumerus -66.6853 9.68283 -87.1675
rradius 31.8108
rwrist 18.4094
rhand 0.923226 -55.9267
rfingers 7.12502
rthumb 26.4744 635.903
lclavicle -7.60351e-015 1.3418e-014
lhumerus -4.4542 -11.0722 74.8341
lradius 51.1096
lwrist -6.55962
lhand -13.6336 -28.0675
lfingers 7.12502
lthumb 12.4824 1.5397
rfemur -30.0394 23.0061 10.8672
rtibia 21.11
rfoot -30.0956 -38.3311
rtoes 19.064
lfemur 17.826 -19.3246 -35.7142
ltibia 9.62631
lfoot -17.0781 15.6145
ltoes -11.5723
665
root 9.40396 15.2443 -6.78684 180.443 -7.25226 -182.583
lowerback 4.48647 -2.23105 -4.96093
upperback -2.91041 -3.41173 -0.524124
thorax -5.29145 -1.54289 2.53422
lowerneck -8.91347 -2.43921 -6.32772
upperneck 10.9219 -3.6793 8.38648
head 5.00743 -1.63111 3.3858
rclavicle -1.50269e-014 -7.7526e-015
rhumerus -66.8969 9.59333 -86.8601
rradius 32.026
rwrist 17.9237
rhand 0.380401 -55.9993
rfingers 7.12502
rthumb 25.9547 635.753
lclavicle -1.50269e-014 -7.7526e-015
lhumerus -4.15487 -11.789 74.6214
lradius 52.1332
lwrist -6.2806
lhand -13.5418 -27.7803
lfingers 7.12502
lthumb 12.5709 1.82151
rfemur -30.5627 28.0267 8.91293
rtibia 19.2253
rfoot -31.1074 -42.6131
rtoes 18.3491
lfemur 19.0479 -18.6805 -35.096
ltibia 9.34493
lfoot -16.5362 14.4436
ltoes -5.8496
666
root 9.40897 15.2196 -6.98983 180.657 -7.86545 -183.03
lowerback 4.45579 -2.3985 -5.26894
upperback -2.99137 -3.67429 -0.659355
thorax -5.33112 -1.66566 2.58708
lowerneck -8.85241 -2.45854 -6.35306
upperneck 10.8875 -3.70237 8.3854
head 4.98871 -1.645 3.38825
rclavicle 3.86574e-014 -3.8763e-015
rhumerus -67.0312 9.54442 -86.5368
rradius 32.1209
rwrist 17.4863
rhand -0.224426 -56.0862
rfingers 7.12502
rthumb 25.3754 635.582
lclavicle 3.86574e-014 -3.8763e-015
lhumerus -3.95023 -12.3641 74.5914
lradius 53.0645
lwrist -6.27227
lhand -13.7101 -27.6826
lfingers 7.12502
lthumb 12.4086 1.92911
rfemur -31.274 30.7316 6.47414
rtibia 17.8738
rfoot -31.5528 -45.5874
rtoes 16.4987
lfemur 19.7512 -18.442 -35.3616
ltibia 9.05132
lfoot -15.2145 13.0649
ltoes 1.52189
667
root 9.4304 15.1995 -7.20879 180.783 -8.27557 -183.006
lowerback 4.26472 -2.50332 -5.37481
upperback -3.02027 -3.81048 -0.62656
thorax -5.23324 -1.7322 2.6808
lowerneck -9.33988 -2.48174 -6.23298
upperneck 11.4315 -3.74091 8.18927
head 5.23634 -1.65783 3.30211
rclavicle 2.54817e-014 2.56432e-014
rhumerus -67.0249 9.3943 -86.1006
rradius 32.0533
rwrist 17.3906
rhand -0.617073 -55.859
rfingers 7.12502
rthumb 24.9992 635.757
lclavicle 2.54817e-014 2.56432e-014
lhumerus -3.91813 -12.98 74.5807
lradius 54.0382
lwrist -6.33231
lhand -13.9719 -27.6727
lfingers 7.12502
lthumb 12.1562 1.95414
rfemur -32.0285 33.7482 4.59534
rtibia 16.7649
rfoot -33.2974 -48.2213
rtoes 16.6402
lfemur 20.3705 -18.025 -35.0586
ltibia 9.08415
lfoot -14.2689 12.3888
ltoes -1.14633
668
root 9.44855 15.1885 -7.42616 180.876 -8.63636 -182.977
lowerback 4.26005 -2.60195 -5.43035
upperback -3.07101 -3.94681 -0.586217
thorax -5.26665 -1.7954 2.76511
lowerneck -9.74105 -2.56699 -6.6466
upperneck 11.8373 -3.86578 8.57437
head 5.45462 -1.7043 3.48217
rclavicle 1.18091e-014 1.53064e-014
rhumerus -66.9714 9.27427 -85.6318
rradius 32.0453
rwrist 17.228
rhand -0.528812 -55.6054
rfingers 7.12502
rthumb 25.0838 636.022
lclavicle 1.18091e-014 1.53064e-014
lhumerus -3.98329 -13.7027 74.5236
lradius 55.0871
lwrist -6.25532
lhand -14.2081 -27.5767
lfingers 7.12502
lthumb 11.9284 2.06348
rfemur -32.4854 35.6897 3.352
rtibia 16.0812
rfoot -34.3019 -49.6851
rtoes 16.6032
lfemur 21.0966 -17.5535 -34.7509
ltibia 9.03277
lfoot -13.7865 11.7719
ltoes -6.51385
669
root 9.4674 15.183 -7.64409 180.978 -8.93151 -182.889
lowerback 4.24337 -2.71228 -5.43725
upperback -3.17287 -4.09808 -0.534412
thorax -5.34766 -1.86588 2.83661
lowerneck -9.49073 -2.43117 -6.58406
upperneck 11.7443 -3.68362 8.47905
head 5.36539 -1.62533 3.45736
rclavicle -4.67206e-014 -4.47266e-015
rhumerus -66.9584 9.34634 -85.3906
rradius 32.1045
rwrist 16.9117
rhand -0.212013 -55.6984
rfingers 7.12502
rthumb 25.3873 635.972
lclavicle -4.67206e-014 -4.47266e-015
lhumerus -4.23288 -14.4154 74.4656
lradius 56.1797
lwrist -5.98448
lhand -14.2738 -27.5117
lfingers 7.12502
lthumb 11.8651 2.13211
rfemur -32.7198 36.9392 2.61126
rtibia 15.6815
rfoot -36.7506 -49.1592
rtoes 20.255
lfemur 21.8046 -17.0415 -34.3156
ltibia 8.91948
lfoot -13.299 11.0534
ltoes -8.75434
